<svg xmlns="http://www.w3.org/2000/svg" viewBox="0 0 1000 1000" fill="none">
  <defs>
    <!-- Stroke: outline opacity 25% (bottom) to 100% (top) -->
    <linearGradient id="logoStrokeGrad" x1="0" y1="1" x2="0" y2="0" gradientUnits="objectBoundingBox">
      <stop offset="0" stop-color="currentColor" stop-opacity="0.25"/>
      <stop offset="1" stop-color="currentColor" stop-opacity="1"/>
    </linearGradient>
    <!-- Fill: opacity 0% (bottom) to 50% (top) -->
    <linearGradient id="logoFillGrad" x1="0" y1="1" x2="0" y2="0" gradientUnits="objectBoundingBox">
      <stop offset="0" stop-color="currentColor" stop-opacity="0"/>
      <stop offset="1" stop-color="currentColor" stop-opacity="0.5"/>
    </linearGradient>
  </defs>
  <!-- Stroke outline (5px in ~300px display H 17 in viewBox units) -->
  <g stroke="url(#logoStrokeGrad)" stroke-width="17" stroke-linejoin="round" stroke-linecap="round">
    <path d="M776.84,406.87c-46.29-139.25-193.03-223.87-337.75-192.51-193.04,41.13-290.12,259.07-193.18,429.64,61.2,109.38,191.05,168.74,315,141.64,170.5-35.91,271.55-214.95,215.93-378.77ZM429.63,775.21c-183.05-46.7-270.05-257.31-174.47-419.21,62.49-107.71,193.6-163.02,315.21-131.21,164.11,41.48,255.57,219.51,195.01,376.55-50.43,133.6-196.51,210-335.75,173.87Z"/>
    <path d="M500,208c-161.27,0-292,130.73-292,292s130.73,292,292,292,292-130.73,292-292-130.73-292-292-292ZM500,784c-156.85,0-284-127.15-284-284s127.15-284,284-284,284,127.15,284,284-127.15,284-284,284Z"/>
    <path d="M833.75,446.3c-13.36-83.72-57.46-157.18-120.37-208.43-1.37-35.97-1.25-72.04.41-108.17-30.42,19.48-61.57,37.6-93.37,54.38-37.41-14.27-78-22.08-120.42-22.08s-83.01,7.81-120.42,22.08c-31.8-16.78-62.95-34.9-93.37-54.38,1.66,36.13,1.78,72.2.41,108.17-62.91,51.25-107.01,124.71-120.37,208.43-30.43,19.17-61.74,37.08-93.84,53.7,32.1,16.62,63.41,34.53,93.84,53.7,13.36,83.72,57.46,157.18,120.37,208.43,1.38,35.96,1.24,72.05-.41,108.17,30.41-19.47,61.56-37.62,93.36-54.38,37.41,14.27,78.01,22.08,120.43,22.08s83.02-7.81,120.43-22.08c31.8,16.76,62.95,34.91,93.36,54.38-1.65-36.12-1.79-72.21-.41-108.17,62.91-51.25,107.01-124.71,120.37-208.43,30.44-19.16,61.74-37.09,93.84-53.7-32.1-16.61-63.4-34.54-93.84-53.7ZM500,805c-168.45,0-305-136.55-305-305S331.55,195,500,195s305,136.55,305,305-136.55,305-305,305Z"/>
    <path d="M732.65,487.43c-4.59-86.38-56.23-160.27-129.75-196.53,32.68,54.1,53.06,116.47,57.27,183.23,18.77,6.9,36.68,15.59,53.52,25.87-16.84,10.28-34.75,18.97-53.52,25.87-4.21,66.76-24.59,129.13-57.27,183.23,73.52-36.26,125.16-110.15,129.75-196.53.22-4.16.33-8.35.33-12.57s-.11-8.41-.33-12.57Z"/>
    <path d="M339.83,525.87c4.21,66.76,24.59,129.13,57.27,183.23-73.52-36.26-125.16-110.15-129.75-196.53-.22-4.16-.33-8.35-.33-12.57s.11-8.41.33-12.57c4.59-86.38,56.23-160.27,129.75-196.53-32.68,54.1-53.06,116.47-57.27,183.23-18.77,6.9-36.68,15.59-53.52,25.87,16.84,10.28,34.75,18.97,53.52,25.87Z"/>
    <path d="M619.17,500c-15.1,9.22-31.07,17.17-47.75,23.69-4.02,85.11-29.61,164.58-71.41,233.06-.01.01-.01.02-.01.03-.01-.01-.01-.02-.02-.03-41.8-68.48-67.39-147.95-71.41-233.06-16.68-6.52-32.65-14.47-47.75-23.69,15.1-9.22,31.07-17.17,47.75-23.69,4.02-85.11,29.61-164.58,71.41-233.06.01-.01.01-.02.02-.03,0,.01,0,.02.01.03,41.8,68.48,67.39,147.95,71.41,233.06,16.68,6.52,32.65,14.47,47.75,23.69Z"/>
  </g>
  <!-- Fill -->
  <g fill="url(#logoFillGrad)" stroke="none">
    <path d="M776.84,406.87c-46.29-139.25-193.03-223.87-337.75-192.51-193.04,41.13-290.12,259.07-193.18,429.64,61.2,109.38,191.05,168.74,315,141.64,170.5-35.91,271.55-214.95,215.93-378.77ZM429.63,775.21c-183.05-46.7-270.05-257.31-174.47-419.21,62.49-107.71,193.6-163.02,315.21-131.21,164.11,41.48,255.57,219.51,195.01,376.55-50.43,133.6-196.51,210-335.75,173.87Z"/>
    <path d="M500,208c-161.27,0-292,130.73-292,292s130.73,292,292,292,292-130.73,292-292-130.73-292-292-292ZM500,784c-156.85,0-284-127.15-284-284s127.15-284,284-284,284,127.15,284,284-127.15,284-284,284Z"/>
    <path d="M833.75,446.3c-13.36-83.72-57.46-157.18-120.37-208.43-1.37-35.97-1.25-72.04.41-108.17-30.42,19.48-61.57,37.6-93.37,54.38-37.41-14.27-78-22.08-120.42-22.08s-83.01,7.81-120.42,22.08c-31.8-16.78-62.95-34.9-93.37-54.38,1.66,36.13,1.78,72.2.41,108.17-62.91,51.25-107.01,124.71-120.37,208.43-30.43,19.17-61.74,37.08-93.84,53.7,32.1,16.62,63.41,34.53,93.84,53.7,13.36,83.72,57.46,157.18,120.37,208.43,1.38,35.96,1.24,72.05-.41,108.17,30.41-19.47,61.56-37.62,93.36-54.38,37.41,14.27,78.01,22.08,120.43,22.08s83.02-7.81,120.43-22.08c31.8,16.76,62.95,34.91,93.36,54.38-1.65-36.12-1.79-72.21-.41-108.17,62.91-51.25,107.01-124.71,120.37-208.43,30.44-19.16,61.74-37.09,93.84-53.7-32.1-16.61-63.4-34.54-93.84-53.7ZM500,805c-168.45,0-305-136.55-305-305S331.55,195,500,195s305,136.55,305,305-136.55,305-305,305Z"/>
    <path d="M732.65,487.43c-4.59-86.38-56.23-160.27-129.75-196.53,32.68,54.1,53.06,116.47,57.27,183.23,18.77,6.9,36.68,15.59,53.52,25.87-16.84,10.28-34.75,18.97-53.52,25.87-4.21,66.76-24.59,129.13-57.27,183.23,73.52-36.26,125.16-110.15,129.75-196.53.22-4.16.33-8.35.33-12.57s-.11-8.41-.33-12.57Z"/>
    <path d="M339.83,525.87c4.21,66.76,24.59,129.13,57.27,183.23-73.52-36.26-125.16-110.15-129.75-196.53-.22-4.16-.33-8.35-.33-12.57s.11-8.41.33-12.57c4.59-86.38,56.23-160.27,129.75-196.53-32.68,54.1-53.06,116.47-57.27,183.23-18.77,6.9-36.68,15.59-53.52,25.87,16.84,10.28,34.75,18.97,53.52,25.87Z"/>
    <path d="M619.17,500c-15.1,9.22-31.07,17.17-47.75,23.69-4.02,85.11-29.61,164.58-71.41,233.06-.01.01-.01.02-.01.03-.01-.01-.01-.02-.02-.03-41.8-68.48-67.39-147.95-71.41-233.06-16.68-6.52-32.65-14.47-47.75-23.69,15.1-9.22,31.07-17.17,47.75-23.69,4.02-85.11,29.61-164.58,71.41-233.06.01-.01.01-.02.02-.03,0,.01,0,.02.01.03,41.8,68.48,67.39,147.95,71.41,233.06,16.68,6.52,32.65,14.47,47.75,23.69Z"/>
  </g>
</svg>
